999
dxfrw 0.6.3
  0
SECTION
  2
HEADER
  9
$ACADVER
  1
AC1021
  9
$DWGCODEPAGE
  3
ANSI_1252
  9
$INSBASE
 10
0
 20
0
 30
0
  9
$EXTMIN
 10
1e+020
 20
1e+020
 30
1e+020
  9
$EXTMAX
 10
-1e+020
 20
-1e+020
 30
-1e+020
  9
$LIMMIN
 10
0
 20
0
  9
$LIMMAX
 10
420
 20
297
  9
$ORTHOMODE
 70
    0
  9
$REGENMODE
 70
    1
  9
$FILLMODE
 70
    1
  9
$QTEXTMODE
 70
    0
  9
$MIRRTEXT
 70
    0
  9
$LTSCALE
 40
1
  9
$ATTMODE
 70
    0
  9
$TEXTSIZE
 40
2.5
  9
$TRACEWID
 40
15.68
  9
$TEXTSTYLE
  7
STANDARD
  9
$CLAYER
  8
0
  9
$CELTYPE
  6
BYLAYER
  9
$CECOLOR
 62
  256
  9
$DIMSCALE
 40
2.5
  9
$DIMASZ
 40
2.5
  9
$DIMEXO
 40
0.625
  9
$DIMDLI
 40
3.75
  9
$DIMRND
 40
0
  9
$DIMDLE
 40
0
  9
$DIMEXE
 40
1.25
  9
$DIMTP
 40
0
  9
$DIMTM
 40
0
  9
$DIMTXT
 40
2.5
  9
$DIMCEN
 40
2.5
  9
$DIMTSZ
 40
0
  9
$DIMTOL
 70
    0
  9
$DIMLIM
 70
    0
  9
$DIMTIH
 70
    0
  9
$DIMTOH
 70
    0
  9
$DIMSE1
 70
    0
  9
$DIMSE2
 70
    0
  9
$DIMTAD
 70
    1
  9
$DIMZIN
 70
    8
  9
$DIMBLK
  1

  9
$DIMASO
 70
    1
  9
$DIMSHO
 70
    1
  9
$DIMPOST
  1

  9
$DIMAPOST
  1

  9
$DIMALT
 70
    0
  9
$DIMALTD
 70
    3
  9
$DIMALTF
 40
0.03937
  9
$DIMLFAC
 40
1
  9
$DIMTOFL
 70
    1
  9
$DIMTVP
 40
0
  9
$DIMTIX
 70
    0
  9
$DIMSOXD
 70
    0
  9
$DIMSAH
 70
    0
  9
$DIMBLK1
  1

  9
$DIMBLK2
  1

  9
$DIMSTYLE
  2
STANDARD
  9
$DIMCLRD
 70
    0
  9
$DIMCLRE
 70
    0
  9
$DIMCLRT
 70
    0
  9
$DIMTFAC
 40
1
  9
$DIMGAP
 40
0.625
  9
$LUNITS
 70
    2
  9
$LUPREC
 70
    4
  9
$SKETCHINC
 40
1
  9
$FILLETRAD
 40
0
  9
$AUNITS
 70
    0
  9
$AUPREC
 70
    2
  9
$MENU
  1
.
  9
$ELEVATION
 40
0
  9
$PELEVATION
 40
0
  9
$THICKNESS
 40
0
  9
$LIMCHECK
 70
    0
  9
$BLIPMODE
 70
    0
  9
$CHAMFERA
 40
0
  9
$CHAMFERB
 40
0
  9
$SKPOLY
 70
    0
  9
$USRTIMER
 70
    1
  9
$ANGBASE
 50
0
  9
$ANGDIR
 70
    0
  9
$PDMODE
 70
   34
  9
$PDSIZE
 40
0
  9
$PLINEWID
 40
0
  9
$COORDS
 70
    2
  9
$SPLFRAME
 70
    0
  9
$SPLINETYPE
 70
    2
  9
$SPLINESEGS
 70
    8
  9
$ATTDIA
 70
    1
  9
$ATTREQ
 70
    1
  9
$HANDLING
 70
    1
  9
$HANDSEED
  5
20000
  9
$SURFTAB1
 70
    6
  9
$SURFTAB2
 70
    6
  9
$SURFTYPE
 70
    6
  9
$SURFU
 70
    6
  9
$SURFV
 70
    6
  9
$UCSNAME
  2

  9
$UCSORG
 10
0
 20
0
 30
0
  9
$UCSXDIR
 10
1
 20
0
 30
0
  9
$UCSYDIR
 10
0
 20
1
 30
0
  9
$PUCSNAME
  2

  9
$PUCSORG
 10
0
 20
0
 30
0
  9
$PUCSXDIR
 10
1
 20
0
 30
0
  9
$PUCSYDIR
 10
0
 20
1
 30
0
  9
$USERI1
 70
    0
  9
$USERI2
 70
    0
  9
$USERI3
 70
    0
  9
$USERI4
 70
    0
  9
$USERI5
 70
    0
  9
$USERR1
 40
0
  9
$USERR2
 40
0
  9
$USERR3
 40
0
  9
$USERR4
 40
0
  9
$USERR5
 40
0
  9
$WORLDVIEW
 70
    1
  9
$SHADEDGE
 70
    3
  9
$SHADEDIF
 70
   70
  9
$TILEMODE
 70
    1
  9
$MAXACTVP
 70
   64
  9
$PLIMCHECK
 70
    0
  9
$PEXTMIN
 10
0
 20
0
 30
0
  9
$PEXTMAX
 10
0
 20
0
 30
0
  9
$PLIMMIN
 10
0
 20
0
  9
$PLIMMAX
 10
297
 20
210
  9
$UNITMODE
 70
    0
  9
$VISRETAIN
 70
    1
  9
$PLINEGEN
 70
    0
  9
$PSLTSCALE
 70
    1
  0
ENDSEC
  0
SECTION
  2
TABLES
  0
TABLE
  2
VPORT
 70
    1
  0
VPORT
  2
*ACTIVE
 70
   64
 10
0
 20
0
 11
1
 21
1
 12
4.000000018626449
 22
5.58854428465559
 13
0
 23
0
 14
0.5
 24
0.5
 15
0.5
 25
0.5
 16
0
 26
0
 36
1
 17
0
 27
0
 37
0
 40
11.29104565793014
 41
18.18715898698241
 42
50
 43
0
 44
0
 50
0
 51
0
 71
   16
 72
 1000
 73
    1
 74
    3
 75
    0
 76
    0
 77
    0
 78
    0
  0
ENDTAB
  0
TABLE
  2
LTYPE
 70
    4
  0
LTYPE
  2
BYBLOCK
 70
    0
  3

 72
   65
 73
    0
 40
0
  0
LTYPE
  2
BYLAYER
 70
    0
  3

 72
   65
 73
    0
 40
0
  0
LTYPE
  2
CONTINUOUS
 70
    0
  3
Solid line
 72
   65
 73
    0
 40
0
  0
ENDTAB
  0
TABLE
  2
LAYER
 70
    1
  0
LAYER
  2
0
 70
   64
 62
    7
  6
CONTINUOUS
  0
LAYER
  2
LINES
 70
   64
 62
    7
  6
CONTINUOUS
  0
LAYER
  2
TEXT
 70
   64
 62
    7
  6
CONTINUOUS
  0
LAYER
  2
VPORT
 70
   64
 62
    7
  6
CONTINUOUS
  0
ENDTAB
  0
TABLE
  2
STYLE
 70
    3
  0
STYLE
  2
STANDARD
 70
   68
 40
1
 41
0
 50
0
 71
  153
 42
0
  3
TXT
  4

  0
STYLE
  2
SIMPLEX 0 HEIGHT
 70
   64
 40
-9.015549415535143e+252
 41
1
 50
3.928703856678232e-308
 71
   27
 42
1.740728496529779e-077
  3
SIMPLEX.SHX
  4

  0
STYLE
  2
ARIAL BOLD 0 HEIGHT
 70
   64
 40
-9.015549415535143e+252
 41
1
 50
6.06260109112209
 71
   27
 42
1.728859344035704e+212
  3
ARIALBD.TTF
  4

  0
STYLE
  2
ARIAL 0 HEIGHT
 70
   64
 40
-9.015549415535143e+252
 41
1.816612763936635e-231
 50
1.112562393462138e-308
 71
   26
 42
9.354343487949894e+192
  3
ARIAL.TTF
  4

  0
ENDTAB
  0
TABLE
  2
VIEW
 70
    0
  0
ENDTAB
  0
TABLE
  2
UCS
 70
    0
  0
ENDTAB
  0
TABLE
  2
APPID
 70
    1
  0
APPID
  2
ACAD
 70
    0
  0
APPID
  2
DCO15
 70
   80
  0
APPID
  2
ACAD_PSEXT
 70
   64
  0
ENDTAB
  0
TABLE
  2
DIMSTYLE
 70
    1
  0
DIMSTYLE
  2
STANDARD
 70
    0
 40
1
 41
0.18
 42
0.0625
 43
0.38
 44
0.18
 45
0
 46
0
 47
0
 48
0
 49
1
140
0.18
141
0.09
142
0
143
25.4
144
1
145
0
146
1
147
0.09
 71
    0
 72
    0
 73
    0
 74
    1
 75
    0
 76
    0
 77
    0
 78
    0
170
    0
171
    2
172
    0
173
    0
174
    0
175
    0
176
    0
177
    0
178
    0
  0
ENDTAB
  0
ENDSEC
  0
SECTION
  2
BLOCKS
  0
BLOCK
  8
0
  2
$MODEL_SPACE
 70
    0
 10
0
 20
0
 30
0
  3
$MODEL_SPACE
  1

  0
ENDBLK
  8
0
  0
BLOCK
  8
0
  2
$PAPER_SPACE
 70
    0
 10
0
 20
0
 30
0
  3
$PAPER_SPACE
  1

  0
ENDBLK
  8
0
  0
BLOCK
  8
0
  2
*MODEL_SPACE
 70
   64
 10
0
 20
0
  3
*MODEL_SPACE
  1

  0
ENDBLK
  8
0
  0
BLOCK
  8
0
  2
*PAPER_SPACE0
 70
   64
 10
0
 20
0
  3
*PAPER_SPACE0
  1

  0
ENDBLK
  8
0
  0
BLOCK
  8
0
  2
*PAPER_SPACE
 70
   64
 10
0
 20
0
  3
*PAPER_SPACE
  1

  0
ENDBLK
  8
0
  0
ENDSEC
  0
SECTION
  2
ENTITIES
  0
LINE
  5
31
  8
LINES
  6
CONTINUOUS
 62
  256
 10
2
 20
9.415516953498951
 11
6.5
 21
9.415516953498951
  0
LINE
  5
32
  8
LINES
  6
CONTINUOUS
 62
  256
 10
2
 20
9.165516953498951
 11
6.5
 21
9.165516953498951
  0
LINE
  5
33
  8
LINES
  6
CONTINUOUS
 62
  256
 10
2
 20
8.915516953498951
 11
6.5
 21
8.915516953498951
  0
LINE
  5
34
  8
LINES
  6
CONTINUOUS
 62
  256
 10
2
 20
8.665516953498951
 11
6.5
 21
8.665516953498951
  0
LINE
  5
35
  8
LINES
  6
CONTINUOUS
 62
  256
 10
2
 20
8.415516953498951
 11
6.5
 21
8.415516953498951
  0
LINE
  5
36
  8
LINES
  6
CONTINUOUS
 62
  256
 10
2
 20
8.165516953498951
 11
6.5
 21
8.165516953498951
  0
LINE
  5
37
  8
LINES
  6
CONTINUOUS
 62
  256
 10
2
 20
7.915516953498951
 11
6.5
 21
7.915516953498951
  0
LINE
  5
38
  8
LINES
  6
CONTINUOUS
 62
  256
 10
2
 20
7.665516953498951
 11
6.5
 21
7.665516953498951
  0
LINE
  5
39
  8
LINES
  6
CONTINUOUS
 62
  256
 10
2
 20
7.353016953498951
 11
6.5
 21
7.353016953498951
  0
LINE
  5
3A
  8
LINES
  6
CONTINUOUS
 62
  256
 10
2
 20
7.040516953498951
 11
6.5
 21
7.040516953498951
  0
LINE
  5
3B
  8
LINES
  6
CONTINUOUS
 62
  256
 10
2
 20
6.728016953498951
 11
6.5
 21
6.728016953498951
  0
LINE
  5
3C
  8
LINES
  6
CONTINUOUS
 62
  256
 10
2
 20
6.290516953498951
 11
6.5
 21
6.290516953498951
  0
LINE
  5
3D
  8
LINES
  6
CONTINUOUS
 62
  256
 10
2
 20
5.790516953498951
 11
6.5
 21
5.790516953498951
  0
LINE
  5
3E
  8
LINES
  6
CONTINUOUS
 62
  256
 10
2
 20
5.290516953498951
 11
6.5
 21
5.290516953498951
  0
LINE
  5
3F
  8
LINES
  6
CONTINUOUS
 62
  256
 10
2
 20
4.790516953498951
 11
6.5
 21
4.790516953498951
  0
LINE
  5
40
  8
LINES
  6
CONTINUOUS
 62
  256
 10
2
 20
4.290516953498951
 11
6.5
 21
4.290516953498951
  0
LINE
  5
41
  8
LINES
  6
CONTINUOUS
 62
  256
 10
2
 20
3.5
 11
6.5
 21
3.5
  0
LINE
  5
42
  8
LINES
  6
CONTINUOUS
 62
  256
 10
2
 20
3
 11
6.5
 21
3
  0
LINE
  5
43
  8
LINES
  6
CONTINUOUS
 62
  256
 10
2
 20
2.5
 11
6.5
 21
2.5
  0
LINE
  5
44
  8
LINES
  6
CONTINUOUS
 62
  256
 10
2
 20
2
 11
6.5
 21
2
  0
LINE
  5
45
  8
LINES
  6
CONTINUOUS
 62
  256
 10
2
 20
1.5
 11
6.5
 21
1.5
  0
LINE
  5
46
  8
LINES
  6
CONTINUOUS
 62
  256
 10
2
 20
1
 11
6.5
 21
1
  0
LINE
  5
47
  8
LINES
  6
CONTINUOUS
 62
  256
 10
2
 20
0.5405169534989511
 11
6.5
 21
0.5405169534989511
  0
TEXT
  5
48
  8
TEXT
  6
CONTINUOUS
 62
  256
 10
0.3842857142857143
 20
9.335516953498951
 30
0
 40
0.12
  1
0.00
 50
0
 41
1
 51
0
  7
SIMPLEX 0 HEIGHT
 71
    0
 72
    2
 11
0.75
 21
9.335516953498951
 31
0
210
0
220
0
230
1
  0
TEXT
  5
49
  8
TEXT
  6
CONTINUOUS
 62
  256
 10
0.3842857142857143
 20
9.085516953498951
 30
0
 40
0.12
  1
0.05
 50
0
 41
1
 51
0
  7
SIMPLEX 0 HEIGHT
 71
    0
 72
    2
 11
0.75
 21
9.085516953498951
 31
0
210
0
220
0
230
1
  0
TEXT
  5
4A
  8
TEXT
  6
CONTINUOUS
 62
  256
 10
0.39
 20
8.835516953498951
 30
0
 40
0.12
  1
0.09
 50
0
 41
1
 51
0
  7
SIMPLEX 0 HEIGHT
 71
    0
 72
    2
 11
0.75
 21
8.835516953498951
 31
0
210
0
220
0
230
1
  0
TEXT
  5
4B
  8
TEXT
  6
CONTINUOUS
 62
  256
 10
0.4071428571428571
 20
8.585516953498951
 30
0
 40
0.12
  1
0.13
 50
0
 41
1
 51
0
  7
SIMPLEX 0 HEIGHT
 71
    0
 72
    2
 11
0.75
 21
8.585516953498951
 31
0
210
0
220
0
230
1
  0
TEXT
  5
4C
  8
TEXT
  6
CONTINUOUS
 62
  256
 10
0.4071428571428572
 20
8.335516953498951
 30
0
 40
0.12
  1
0.15
 50
0
 41
1
 51
0
  7
SIMPLEX 0 HEIGHT
 71
    0
 72
    2
 11
0.75
 21
8.335516953498951
 31
0
210
0
220
0
230
1
  0
TEXT
  5
4D
  8
TEXT
  6
CONTINUOUS
 62
  256
 10
0.4071428571428572
 20
8.085516953498951
 30
0
 40
0.12
  1
0.18
 50
0
 41
1
 51
0
  7
SIMPLEX 0 HEIGHT
 71
    0
 72
    2
 11
0.75
 21
8.085516953498951
 31
0
210
0
220
0
230
1
  0
TEXT
  5
4E
  8
TEXT
  6
CONTINUOUS
 62
  256
 10
0.3842857142857143
 20
7.83551695349895
 30
0
 40
0.12
  1
0.20
 50
0
 41
1
 51
0
  7
SIMPLEX 0 HEIGHT
 71
    0
 72
    2
 11
0.75
 21
7.83551695349895
 31
0
210
0
220
0
230
1
  0
TEXT
  5
4F
  8
TEXT
  6
CONTINUOUS
 62
  256
 10
0.3842857142857143
 20
7.585516953498951
 30
0
 40
0.12
  1
0.25
 50
0
 41
1
 51
0
  7
SIMPLEX 0 HEIGHT
 71
    0
 72
    2
 11
0.75
 21
7.585516953498951
 31
0
210
0
220
0
230
1
  0
TEXT
  5
50
  8
TEXT
  6
CONTINUOUS
 62
  256
 10
0.3842857142857143
 20
7.273016953498951
 30
0
 40
0.12
  1
0.30
 50
0
 41
1
 51
0
  7
SIMPLEX 0 HEIGHT
 71
    0
 72
    2
 11
0.75
 21
7.273016953498951
 31
0
210
0
220
0
230
1
  0
TEXT
  5
51
  8
TEXT
  6
CONTINUOUS
 62
  256
 10
0.3842857142857144
 20
6.960516953498951
 30
0
 40
0.12
  1
0.35
 50
0
 41
1
 51
0
  7
SIMPLEX 0 HEIGHT
 71
    0
 72
    2
 11
0.75
 21
6.960516953498951
 31
0
210
0
220
0
230
1
  0
TEXT
  5
52
  8
TEXT
  6
CONTINUOUS
 62
  256
 10
0.3842857142857143
 20
6.608016953498951
 30
0
 40
0.12
  1
0.40
 50
0
 41
1
 51
0
  7
SIMPLEX 0 HEIGHT
 71
    0
 72
    2
 11
0.75
 21
6.608016953498951
 31
0
210
0
220
0
230
1
  0
TEXT
  5
53
  8
TEXT
  6
CONTINUOUS
 62
  256
 10
0.3842857142857144
 20
6.230516953498952
 30
0
 40
0.12
  1
0.50
 50
0
 41
1
 51
0
  7
SIMPLEX 0 HEIGHT
 71
    0
 72
    2
 11
0.75
 21
6.290516953498951
 31
0
210
0
220
0
230
1
 73
    2
  0
TEXT
  5
54
  8
TEXT
  6
CONTINUOUS
 62
  256
 10
0.3842857142857143
 20
5.730516953498951
 30
0
 40
0.12
  1
0.53
 50
0
 41
1
 51
0
  7
SIMPLEX 0 HEIGHT
 71
    0
 72
    2
 11
0.75
 21
5.79051695349895
 31
0
210
0
220
0
230
1
 73
    2
  0
TEXT
  5
55
  8
TEXT
  6
CONTINUOUS
 62
  256
 10
0.3842857142857143
 20
5.230516953498951
 30
0
 40
0.12
  1
0.60
 50
0
 41
1
 51
0
  7
SIMPLEX 0 HEIGHT
 71
    0
 72
    2
 11
0.75
 21
5.29051695349895
 31
0
210
0
220
0
230
1
 73
    2
  0
TEXT
  5
56
  8
TEXT
  6
CONTINUOUS
 62
  256
 10
0.3842857142857143
 20
4.730516953498951
 30
0
 40
0.12
  1
0.70
 50
0
 41
1
 51
0
  7
SIMPLEX 0 HEIGHT
 71
    0
 72
    2
 11
0.75
 21
4.79051695349895
 31
0
210
0
220
0
230
1
 73
    2
  0
TEXT
  5
57
  8
TEXT
  6
CONTINUOUS
 62
  256
 10
0.3842857142857143
 20
4.230516953498951
 30
0
 40
0.12
  1
0.80
 50
0
 41
1
 51
0
  7
SIMPLEX 0 HEIGHT
 71
    0
 72
    2
 11
0.75
 21
4.29051695349895
 31
0
210
0
220
0
230
1
 73
    2
  0
TEXT
  5
58
  8
TEXT
  6
CONTINUOUS
 62
  256
 10
0.4071428571428571
 20
3.439999999999999
 30
0
 40
0.12
  1
1.00
 50
0
 41
1
 51
0
  7
SIMPLEX 0 HEIGHT
 71
    0
 72
    2
 11
0.75
 21
3.499999999999999
 31
0
210
0
220
0
230
1
 73
    2
  0
TEXT
  5
59
  8
TEXT
  6
CONTINUOUS
 62
  256
 10
0.4128571428571429
 20
2.939999999999999
 30
0
 40
0.12
  1
1.06
 50
0
 41
1
 51
0
  7
SIMPLEX 0 HEIGHT
 71
    0
 72
    2
 11
0.75
 21
2.999999999999999
 31
0
210
0
220
0
230
1
 73
    2
  0
TEXT
  5
5A
  8
TEXT
  6
CONTINUOUS
 62
  256
 10
0.4071428571428571
 20
2.439999999999999
 30
0
 40
0.12
  1
1.20
 50
0
 41
1
 51
0
  7
SIMPLEX 0 HEIGHT
 71
    0
 72
    2
 11
0.75
 21
2.499999999999999
 31
0
210
0
220
0
230
1
 73
    2
  0
TEXT
  5
5B
  8
TEXT
  6
CONTINUOUS
 62
  256
 10
0.4071428571428572
 20
1.939999999999999
 30
0
 40
0.12
  1
1.40
 50
0
 41
1
 51
0
  7
SIMPLEX 0 HEIGHT
 71
    0
 72
    2
 11
0.75
 21
1.999999999999999
 31
0
210
0
220
0
230
1
 73
    2
  0
TEXT
  5
5C
  8
TEXT
  6
CONTINUOUS
 62
  256
 10
0.4071428571428573
 20
1.440000000000001
 30
0
 40
0.12
  1
1.58
 50
0
 41
1
 51
0
  7
SIMPLEX 0 HEIGHT
 71
    0
 72
    2
 11
0.75
 21
1.500000000000001
 31
0
210
0
220
0
230
1
 73
    2
  0
TEXT
  5
5D
  8
TEXT
  6
CONTINUOUS
 62
  256
 10
0.3842857142857143
 20
0.9400000000000008
 30
0
 40
0.12
  1
2.00
 50
0
 41
1
 51
0
  7
SIMPLEX 0 HEIGHT
 71
    0
 72
    2
 11
0.75
 21
1.000000000000001
 31
0
210
0
220
0
230
1
 73
    2
  0
TEXT
  5
5E
  8
TEXT
  6
CONTINUOUS
 62
  256
 10
0.4585714285714286
 20
0.4805169534989521
 30
0
 40
0.12
  1
2.11
 50
0
 41
1
 51
0
  7
SIMPLEX 0 HEIGHT
 71
    0
 72
    2
 11
0.75
 21
0.5405169534989521
 31
0
210
0
220
0
230
1
 73
    2
  0
TEXT
  5
5F
  8
TEXT
  6
CONTINUOUS
 62
  256
 10
1.888949522510232
 20
10.17329452005058
 30
0
 40
0.2
  1
AutoCAD Standard Lineweights
 50
0
 41
1
 51
0
  7
ARIAL BOLD 0 HEIGHT
 71
    0
 72
    1
 11
4
 21
10.17329452005058
 31
0
210
0
220
0
230
1
  0
TEXT
  5
60
  8
TEXT
  6
CONTINUOUS
 62
  256
 10
0.429370646250927
 20
9.747295232869465
 30
0
 40
0.18
  1
mm
 50
0
 41
1
 51
0
  7
ARIAL 0 HEIGHT
 71
    0
 72
    1
 11
0.6388385862236419
 21
9.747295232869465
 31
0
210
0
220
0
230
1
  0
TEXT
  5
61
  8
TEXT
  6
CONTINUOUS
 62
  256
 10
1.107962133225153
 20
9.753477857336215
 30
0
 40
0.18
  1
inch
 50
0
 41
1
 51
0
  7
ARIAL 0 HEIGHT
 71
    0
 72
    1
 11
1.338610155053257
 21
9.753477857336215
 31
0
210
0
220
0
230
1
  0
LINE
  5
62
  8
LINES
  6
CONTINUOUS
 62
  256
 10
0.25
 20
10
 11
0.2499999999999982
 21
0.375
  0
LINE
  5
63
  8
LINES
  6
CONTINUOUS
 62
  256
 10
0.2499999999999982
 20
0.375
 11
1.625
 21
0.375
  0
LINE
  5
64
  8
LINES
  6
CONTINUOUS
 62
  256
 10
1.625
 20
0.375
 11
1.625000000000001
 21
10
  0
LINE
  5
65
  8
LINES
  6
CONTINUOUS
 62
  256
 10
1.625000000000001
 20
10
 11
0.25
 21
10
  0
LINE
  5
66
  8
LINES
  6
CONTINUOUS
 62
  256
 10
1
 20
10
 11
0.9999999999999982
 21
0.375
  0
LINE
  5
67
  8
LINES
  6
CONTINUOUS
 62
  256
 10
0.25
 20
9.625
 11
1.625
 21
9.625
  0
TEXT
  5
68
  8
LINES
  6
CONTINUOUS
 62
  256
 10
1.134285714285714
 20
0.4805169534989521
 30
0
 40
0.12
  1
.083
 50
0
 41
1
 51
0
  7
SIMPLEX 0 HEIGHT
 71
    0
 72
    2
 11
1.5
 21
0.5405169534989521
 31
0
210
0
220
0
230
1
 73
    2
  0
TEXT
  5
69
  8
LINES
  6
CONTINUOUS
 62
  256
 10
1.134285714285714
 20
0.9400000000000008
 30
0
 40
0.12
  1
.078
 50
0
 41
1
 51
0
  7
SIMPLEX 0 HEIGHT
 71
    0
 72
    2
 11
1.5
 21
1.000000000000001
 31
0
210
0
220
0
230
1
 73
    2
  0
TEXT
  5
6A
  8
LINES
  6
CONTINUOUS
 62
  256
 10
1.134285714285714
 20
1.440000000000001
 30
0
 40
0.12
  1
.062
 50
0
 41
1
 51
0
  7
SIMPLEX 0 HEIGHT
 71
    0
 72
    2
 11
1.5
 21
1.500000000000001
 31
0
210
0
220
0
230
1
 73
    2
  0
TEXT
  5
6B
  8
LINES
  6
CONTINUOUS
 62
  256
 10
1.14
 20
1.939999999999999
 30
0
 40
0.12
  1
.056
 50
0
 41
1
 51
0
  7
SIMPLEX 0 HEIGHT
 71
    0
 72
    2
 11
1.5
 21
1.999999999999999
 31
0
210
0
220
0
230
1
 73
    2
  0
TEXT
  5
6C
  8
LINES
  6
CONTINUOUS
 62
  256
 10
1.134285714285714
 20
2.431653560175542
 30
0
 40
0.12
  1
.047
 50
0
 41
1
 51
0
  7
SIMPLEX 0 HEIGHT
 71
    0
 72
    2
 11
1.5
 21
2.491653560175542
 31
0
210
0
220
0
230
1
 73
    2
  0
TEXT
  5
6D
  8
LINES
  6
CONTINUOUS
 62
  256
 10
1.147553855621333
 20
2.944777605692809
 30
0
 40
0.12
  1
.042
 50
0
 41
1
 51
0
  7
SIMPLEX 0 HEIGHT
 71
    0
210
0
220
0
230
1
  0
TEXT
  5
6E
  8
LINES
  6
CONTINUOUS
 62
  256
 10
1.153268141335619
 20
3.444777605692809
 30
0
 40
0.12
  1
.039
 50
0
 41
1
 51
0
  7
SIMPLEX 0 HEIGHT
 71
    0
210
0
220
0
230
1
  0
TEXT
  5
6F
  8
LINES
  6
CONTINUOUS
 62
  256
 10
1.178072631388837
 20
4.229703443532721
 30
0
 40
0.12
  1
.031
 50
0
 41
1
 51
0
  7
SIMPLEX 0 HEIGHT
 71
    0
210
0
220
0
230
1
  0
TEXT
  5
70
  8
LINES
  6
CONTINUOUS
 62
  256
 10
1.126644059960265
 20
4.729703443532721
 30
0
 40
0.12
  1
.028
 50
0
 41
1
 51
0
  7
SIMPLEX 0 HEIGHT
 71
    0
210
0
220
0
230
1
  0
TEXT
  5
71
  8
LINES
  6
CONTINUOUS
 62
  256
 10
1.112044420440361
 20
5.226803614604537
 30
0
 40
0.12
  1
.024
 50
0
 41
1
 51
0
  7
SIMPLEX 0 HEIGHT
 71
    0
210
0
220
0
230
1
  0
TEXT
  5
72
  8
LINES
  6
CONTINUOUS
 62
  256
 10
1.178072631388837
 20
5.729703443532721
 30
0
 40
0.12
  1
.021
 50
0
 41
1
 51
0
  7
SIMPLEX 0 HEIGHT
 71
    0
210
0
220
0
230
1
  0
TEXT
  5
73
  8
LINES
  6
CONTINUOUS
 62
  256
 10
1.155002659042773
 20
6.237594002201367
 30
0
 40
0.12
  1
.020
 50
0
 41
1
 51
0
  7
SIMPLEX 0 HEIGHT
 71
    0
210
0
220
0
230
1
  0
TEXT
  5
74
  8
LINES
  6
CONTINUOUS
 62
  256
 10
1.176125284192761
 20
6.610993193141483
 30
0
 40
0.12
  1
.016
 50
0
 41
1
 51
0
  7
SIMPLEX 0 HEIGHT
 71
    0
210
0
220
0
230
1
  0
TEXT
  5
75
  8
LINES
  6
CONTINUOUS
 62
  256
 10
1.16469671276419
 20
6.955171261903129
 30
0
 40
0.12
  1
.014
 50
0
 41
1
 51
0
  7
SIMPLEX 0 HEIGHT
 71
    0
210
0
220
0
230
1
  0
TEXT
  5
76
  8
LINES
  6
CONTINUOUS
 62
  256
 10
1.155513391635589
 20
7.259650380823079
 30
0
 40
0.12
  1
.012
 50
0
 41
1
 51
0
  7
SIMPLEX 0 HEIGHT
 71
    0
210
0
220
0
230
1
  0
TEXT
  5
77
  8
LINES
  6
CONTINUOUS
 62
  256
 10
1.162962195057036
 20
7.568948762703319
 30
0
 40
0.12
  1
.010
 50
0
 41
1
 51
0
  7
SIMPLEX 0 HEIGHT
 71
    0
210
0
220
0
230
1
  0
TEXT
  5
78
  8
LINES
  6
CONTINUOUS
 62
  256
 10
1.147553855621333
 20
7.845535534872053
 30
0
 40
0.12
  1
.008
 50
0
 41
1
 51
0
  7
SIMPLEX 0 HEIGHT
 71
    0
210
0
220
0
230
1
  0
TEXT
  5
79
  8
LINES
  6
CONTINUOUS
 62
  256
 10
1.155002659042773
 20
8.09233388811729
 30
0
 40
0.12
  1
.007
 50
0
 41
1
 51
0
  7
SIMPLEX 0 HEIGHT
 71
    0
210
0
220
0
230
1
  0
TEXT
  5
7A
  8
LINES
  6
CONTINUOUS
 62
  256
 10
1.130921763180839
 20
8.340040924711833
 30
0
 40
0.12
  1
.006
 50
0
 41
1
 51
0
  7
SIMPLEX 0 HEIGHT
 71
    0
210
0
220
0
230
1
  0
TEXT
  5
7B
  8
LINES
  6
CONTINUOUS
 62
  256
 10
1.125207509576093
 20
8.59428638268794
 30
0
 40
0.12
  1
.005
 50
0
 41
1
 51
0
  7
SIMPLEX 0 HEIGHT
 71
    0
210
0
220
0
230
1
  0
TEXT
  5
7C
  8
LINES
  6
CONTINUOUS
 62
  256
 10
1.110309902733207
 20
8.842128575789527
 30
0
 40
0.12
  1
.003
 50
0
 41
1
 51
0
  7
SIMPLEX 0 HEIGHT
 71
    0
210
0
220
0
230
1
  0
TEXT
  5
7D
  8
LINES
  6
CONTINUOUS
 62
  256
 10
1.102861131421307
 20
9.088926929034757
 30
0
 40
0.12
  1
.002
 50
0
 41
1
 51
0
  7
SIMPLEX 0 HEIGHT
 71
    0
210
0
220
0
230
1
  0
LINE
  5
7E
  8
LINES
  6
CONTINUOUS
 62
  256
 10
7.5
 20
10
 11
7.5
 21
0.375
  0
LINE
  5
7F
  8
LINES
  6
CONTINUOUS
 62
  256
 10
7.5
 20
0.375
 11
6.75
 21
0.375
  0
LINE
  5
80
  8
LINES
  6
CONTINUOUS
 62
  256
 10
6.75
 20
0.375
 11
6.75
 21
10
  0
LINE
  5
81
  8
LINES
  6
CONTINUOUS
 62
  256
 10
6.75
 20
10
 11
7.5
 21
10
  0
LINE
  5
82
  8
LINES
  6
CONTINUOUS
 62
  256
 10
6.75
 20
9.625
 11
7.5
 21
9.625
  0
TEXT
  5
83
  8
LINES
  6
CONTINUOUS
 62
  256
 10
6.913067070366014
 20
9.726489703382558
 30
0
 40
0.18
  1
ISO
 50
0
 41
1
 51
0
  7
ARIAL 0 HEIGHT
 71
    0
 72
    1
 11
7.129656429165468
 21
9.726489703382558
 31
0
210
0
220
0
230
1
  0
TEXT
  5
84
  8
LINES
  6
CONTINUOUS
 62
  256
 10
7.074478887256992
 20
8.09038363820577
 30
0
 40
0.18
  1
x
 50
0
 41
1
 51
0
  7
SIMPLEX 0 HEIGHT
 71
    0
 72
    4
 11
7.12162174439985
 21
8.150383638205771
 31
0
210
0
220
0
230
1
  0
TEXT
  5
85
  8
LINES
  6
CONTINUOUS
 62
  256
 10
7.070138062633687
 20
7.590402058673447
 30
0
 40
0.18
  1
x
 50
0
 41
1
 51
0
  7
SIMPLEX 0 HEIGHT
 71
    0
 72
    4
 11
7.117280919776544
 21
7.650402058673446
 31
0
210
0
220
0
230
1
  0
TEXT
  5
86
  8
LINES
  6
CONTINUOUS
 62
  256
 10
7.070138062633687
 20
6.965425062781786
 30
0
 40
0.18
  1
x
 50
0
 41
1
 51
0
  7
SIMPLEX 0 HEIGHT
 71
    0
 72
    4
 11
7.117280919776544
 21
7.025425062781785
 31
0
210
0
220
0
230
1
  0
TEXT
  5
87
  8
LINES
  6
CONTINUOUS
 62
  256
 10
7.070138062633687
 20
6.215452679165796
 30
0
 40
0.18
  1
x
 50
0
 41
1
 51
0
  7
SIMPLEX 0 HEIGHT
 71
    0
 72
    4
 11
7.117280919776544
 21
6.275452679165795
 31
0
210
0
220
0
230
1
  0
TEXT
  5
88
  8
LINES
  6
CONTINUOUS
 62
  256
 10
7.03888215382011
 20
4.715507911933812
 30
0
 40
0.18
  1
x
 50
0
 41
1
 51
0
  7
SIMPLEX 0 HEIGHT
 71
    0
 72
    4
 11
7.086025010962967
 21
4.775507911933811
 31
0
210
0
220
0
230
1
  0
TEXT
  5
89
  8
LINES
  6
CONTINUOUS
 62
  256
 10
7.03888215382011
 20
3.699920293609866
 30
0
 40
0.18
  1
x
 50
0
 41
1
 51
0
  7
SIMPLEX 0 HEIGHT
 71
    0
 72
    4
 11
7.086025010962967
 21
3.759920293609866
 31
0
210
0
220
0
230
1
  0
TEXT
  5
8A
  8
LINES
  6
CONTINUOUS
 62
  256
 10
7.03888215382011
 20
2.238905869841182
 30
0
 40
0.18
  1
x
 50
0
 41
1
 51
0
  7
SIMPLEX 0 HEIGHT
 71
    0
 72
    4
 11
7.086025010962967
 21
2.298905869841182
 31
0
210
0
220
0
230
1
  0
TEXT
  5
8B
  8
LINES
  6
CONTINUOUS
 62
  256
 10
7.03888215382011
 20
1.098322892427908
 30
0
 40
0.18
  1
x
 50
0
 41
1
 51
0
  7
SIMPLEX 0 HEIGHT
 71
    0
 72
    4
 11
7.086025010962967
 21
1.158322892427908
 31
0
210
0
220
0
230
1
  0
LINE
  5
8C
  8
LINES
  6
CONTINUOUS
 62
  256
 10
2
 20
3.875
 11
6.5
 21
3.875
  0
TEXT
  5
8D
  8
TEXT
  6
CONTINUOUS
 62
  256
 10
0.3842857142857143
 20
3.815
 30
0
 40
0.12
  1
0.90
 50
0
 41
1
 51
0
  7
SIMPLEX 0 HEIGHT
 71
    0
 72
    2
 11
0.75
 21
3.875
 31
0
210
0
220
0
230
1
 73
    2
  0
TEXT
  5
8E
  8
TEXT
  6
CONTINUOUS
 62
  256
 10
1.134285714285714
 20
3.815
 30
0
 40
0.12
  1
.035
 50
0
 41
1
 51
0
  7
SIMPLEX 0 HEIGHT
 71
    0
 72
    2
 11
1.5
 21
3.875
 31
0
210
0
220
0
230
1
 73
    2
  0
ENDSEC
  0
EOF
