<?xml version="1.0" standalone="no"?>
<svg version="1.0" xmlns="http://www.w3.org/2000/svg"
 width="918.75"
   height="300"
   viewBox="-10 -10 745 260"
 preserveAspectRatio="xMidYMid meet">
<metadata>
MDM_S
</metadata>
  <g
     transform="matrix(0.1,0,0,-0.1,-52,261)"
     id="g6"
     style="fill:#000000;stroke:none">
    <path
       d="m 3610,2255 261,-260 -1,165 735,-741 -736,-749 -9,165 -250,-250 0,-375 347,0 261,269 -158,7 926,933 -929,931 178,0 -260,260 -365,0 z" />
    <path
       d="m 530,330 10,9 250,257 5,1486 646,-646 184,184 -645,650 150,7 -255,263 -355,0 z"/>
    <path
       d="m 2305,2280 157,-6 -922,-928 180,-191 934,925 5,-160 261,255 0,365 -355,0 z" />
    <path
       d="m 5470,2175 270,-270 0,178 933,-915 178,175 -907,905 151,21 -270,271 -355,0 z" />
    <path
       d="m 7260,2276 150,-6 -630,-645 172,-175 643,630 10,-1478 261,-262 4,2200 -355,0 z"/>
    <path
       d="m 3610,785 c 82.3333,82.33333 164.6667,164.66667 247,247 3.3333,255.3333 6.6667,510.6667 10,766 -85.2989,86.3667 -171.1661,172.1661 -257,258 0,-423.6667 0,-847.3333 0,-1271 z"/>
    <path
       d="m 2659,1713 -4,-763 265,-265 -3,1285 z"/>
    <path
       d="m 5470,685 260,260 3,767 -263,263 z"/>
  </g>
</svg>
