<?xml version="1.0" encoding="UTF-8" standalone="no"?>
<!-- Created with Inkscape (http://www.inkscape.org/) -->

<svg
   xmlns:dc="http://purl.org/dc/elements/1.1/"
   xmlns:cc="http://creativecommons.org/ns#"
   xmlns:rdf="http://www.w3.org/1999/02/22-rdf-syntax-ns#"
   xmlns:svg="http://www.w3.org/2000/svg"
   xmlns="http://www.w3.org/2000/svg"
   xmlns:sodipodi="http://sodipodi.sourceforge.net/DTD/sodipodi-0.dtd"
   xmlns:inkscape="http://www.inkscape.org/namespaces/inkscape"
   width="200mm"
   height="200mm"
   viewBox="0 0 708.66142 708.66141"
   id="svg6230"
   version="1.1"
   inkscape:version="0.91 r13725"
   sodipodi:docname="NotiMon.svg">
  <defs
     id="defs6232">
    <filter
       inkscape:collect="always"
       style="color-interpolation-filters:sRGB"
       id="filter4601">
      <feBlend
         inkscape:collect="always"
         mode="multiply"
         in2="BackgroundImage"
         id="feBlend4603" />
    </filter>
  </defs>
  <sodipodi:namedview
     id="base"
     pagecolor="#ffffff"
     bordercolor="#666666"
     borderopacity="1.0"
     inkscape:pageopacity="0.0"
     inkscape:pageshadow="2"
     inkscape:zoom="0.70710678"
     inkscape:cx="379.98407"
     inkscape:cy="320.39705"
     inkscape:document-units="px"
     inkscape:current-layer="layer1"
     showgrid="false"
     inkscape:snap-bbox="true"
     inkscape:bbox-paths="true"
     inkscape:bbox-nodes="true"
     inkscape:snap-bbox-edge-midpoints="true"
     inkscape:snap-bbox-midpoints="true"
     inkscape:window-width="1436"
     inkscape:window-height="856"
     inkscape:window-x="4"
     inkscape:window-y="0"
     inkscape:window-maximized="1"
     inkscape:snap-global="false" />
  <metadata
     id="metadata6235">
    <rdf:RDF>
      <cc:Work
         rdf:about="">
        <dc:format>image/svg+xml</dc:format>
        <dc:type
           rdf:resource="http://purl.org/dc/dcmitype/StillImage" />
        <dc:title />
      </cc:Work>
    </rdf:RDF>
  </metadata>
  <g
     inkscape:label="Layer 1"
     inkscape:groupmode="layer"
     id="layer1"
     transform="translate(0,-343.70079)">
    <path
       sodipodi:nodetypes="cccccccccc"
       transform="matrix(-1.159112,0,0,-1.159112,789.5163,1234.2982)"
       inkscape:connector-curvature="0"
       id="path4139"
       d="m 562.25586,297.0332 -21.28516,21.28516 c 53.2756,59.71854 69.32251,149.51591 39.44767,223.85085 -9.21526,23.74354 -22.60265,45.85773 -39.36368,65.03391 l -70.68811,-70.6881 c 34.31081,-36.75655 35.11719,-105.25415 1.37192,-147.18837 l -22.30233,20.80445 c 28.40204,40.7094 19.53159,96.92945 -21.4361,126.41896 0,0 76.03256,76.05665 112.96467,112.98905 96.49096,-81.62138 119.5972,-240.91795 21.29112,-352.50591 z"
       style="display:inline;opacity:1;fill:#373737;fill-opacity:1;stroke:#373737;stroke-width:29.21115494;stroke-miterlimit:4;stroke-dasharray:none;stroke-opacity:1;filter:url(#filter4601)" />
    <path
       style="display:inline;opacity:1;fill:#ff5e5e;fill-opacity:1;stroke:#ff5e5e;stroke-width:29.21115494;stroke-miterlimit:4;stroke-dasharray:none;stroke-opacity:1;filter:url(#filter4601)"
       d="m 562.25586,297.0332 -21.28516,21.28516 c 53.2756,59.71854 69.32251,149.51591 39.44767,223.85085 -9.21526,23.74354 -22.60265,45.85773 -39.36368,65.03391 l -70.68811,-70.6881 c 34.31081,-36.75655 35.11719,-105.25415 1.37192,-147.18837 l -22.30233,20.80445 c 28.40204,40.7094 19.53159,96.92945 -21.4361,126.41896 0,0 76.03256,76.05665 112.96467,112.98905 96.49096,-81.62138 119.5972,-240.91795 21.29112,-352.50591 z"
       id="path4593"
       inkscape:connector-curvature="0"
       transform="matrix(1.159112,0,0,1.159112,-80.753569,161.843)"
       sodipodi:nodetypes="cccccccccc" />
    <circle
       r="69.546722"
       cy="698.04553"
       cx="354.32767"
       id="circle4595"
       style="display:inline;fill:#b1b1b1;fill-opacity:1;stroke:#b3b3b3;stroke-width:85.8;stroke-miterlimit:4;stroke-dasharray:none;stroke-opacity:1" />
    <circle
       style="display:inline;fill:#ffffff;fill-opacity:1;stroke:#000000;stroke-width:18;stroke-miterlimit:4;stroke-dasharray:none;stroke-opacity:1"
       id="circle4145"
       cx="354.32767"
       cy="698.04553"
       r="70" />
  </g>
</svg>
