<?xml version="1.0" standalone="no"?>
<!DOCTYPE svg PUBLIC "-//W3C//DTD SVG 20010904//EN"
 "http://www.w3.org/TR/2001/REC-SVG-20010904/DTD/svg10.dtd">
<svg version="1.0" xmlns="http://www.w3.org/2000/svg"
 width="700.000000pt" height="776.000000pt" viewBox="0 0 700.000000 776.000000"
 preserveAspectRatio="xMidYMid meet">
<metadata>
Created by potrace 1.16, written by Peter Selinger 2001-2019
</metadata>
<g transform="translate(0.000000,776.000000) scale(0.100000,-0.100000)"
fill="#000000" stroke="none">
<path d="M470 5858 l0 -995 1551 -824 c854 -453 1558 -829 1567 -835 12 -9
-153 -133 -843 -639 -471 -345 -859 -633 -861 -639 -2 -6 -3 -351 -2 -767 l3
-756 1270 1169 c699 643 1275 1171 1281 1174 5 3 354 -178 775 -402 420 -223
770 -409 777 -411 9 -4 12 59 12 295 l0 300 -485 379 c-266 208 -484 380 -485
383 0 4 373 350 830 769 l830 764 0 313 c0 173 -2 314 -5 314 -9 0 -2270
-1660 -2273 -1669 -2 -5 133 -116 300 -246 167 -130 303 -240 303 -244 0 -9
-555 -521 -571 -528 -9 -3 -430 215 -823 427 -9 5 118 103 382 296 l395 289
-21 21 c-15 15 -3654 2862 -3894 3047 -10 8 -13 -191 -13 -985z"/>
</g>
</svg>
