<?xml version="1.0" standalone="no"?>
<!DOCTYPE svg PUBLIC "-//W3C//DTD SVG 20010904//EN"
 "http://www.w3.org/TR/2001/REC-SVG-20010904/DTD/svg10.dtd">
<svg version="1.0" xmlns="http://www.w3.org/2000/svg"
 width="2486.000000pt" height="776.000000pt" viewBox="0 0 2486.000000 776.000000"
 preserveAspectRatio="xMidYMid meet">
<metadata>
Created by potrace 1.16, written by Peter Selinger 2001-2019
</metadata>
<g transform="translate(0.000000,776.000000) scale(0.100000,-0.100000)"
fill="#000000" stroke="none">
<path d="M470 5858 l0 -995 1551 -824 c854 -453 1558 -829 1566 -835 12 -8
-160 -139 -842 -639 -471 -345 -859 -633 -861 -639 -2 -6 -3 -351 -2 -767 l3
-757 1270 1170 c699 643 1275 1171 1281 1174 5 3 354 -178 775 -402 420 -223
770 -409 777 -411 9 -4 12 59 12 295 l0 301 -485 378 c-266 208 -484 380 -485
384 0 3 373 349 830 768 l830 763 0 314 c0 173 -2 314 -5 314 -9 0 -2270
-1660 -2273 -1669 -2 -5 133 -116 300 -246 167 -130 303 -240 303 -244 0 -9
-555 -521 -571 -528 -9 -3 -430 215 -823 427 -9 5 118 103 382 296 l395 289
-21 21 c-15 15 -3681 2883 -3894 3047 -10 8 -13 -191 -13 -985z"/>
<path d="M17077 5710 c-119 -20 -230 -107 -288 -225 -31 -64 -34 -77 -33 -160
1 -129 26 -189 118 -281 91 -91 152 -117 276 -117 124 0 185 26 276 117 91 91
117 152 117 276 0 115 -26 181 -103 264 -64 68 -132 107 -218 125 -59 12 -75
12 -145 1z"/>
<path d="M15358 4933 l-3 -388 -157 -3 -158 -3 0 -264 0 -265 160 0 160 0 0
-900 0 -900 340 0 340 0 0 900 0 900 163 2 162 3 3 262 2 263 -162 2 -163 3
-3 388 -2 387 -340 0 -340 0 -2 -387z"/>
<path d="M24113 4835 c-101 -28 -175 -92 -219 -189 -22 -49 -27 -73 -27 -140
0 -92 17 -145 65 -212 115 -161 378 -180 522 -39 127 126 132 348 11 483 -82
91 -230 132 -352 97z m212 -69 c133 -63 197 -211 155 -354 -20 -65 -78 -133
-144 -166 -135 -69 -309 -15 -377 117 -47 91 -43 208 11 296 73 118 231 166
355 107z"/>
<path d="M24080 4500 l0 -200 30 0 30 0 0 90 0 90 35 0 c33 0 38 -5 93 -90 53
-84 59 -90 90 -90 38 0 40 -7 -31 99 -31 47 -46 76 -38 79 6 2 25 15 41 29 35
29 47 78 30 128 -17 53 -50 65 -175 65 l-105 0 0 -200z m211 134 c23 -21 24
-61 2 -86 -13 -14 -31 -18 -85 -18 l-68 0 0 66 0 67 66 -6 c41 -4 74 -13 85
-23z"/>
<path d="M10400 4619 c-281 -33 -519 -153 -716 -361 -162 -172 -253 -348 -306
-591 -29 -135 -31 -440 -4 -587 93 -506 433 -845 938 -936 113 -20 376 -23
493 -5 277 43 496 150 675 331 74 75 200 235 200 254 0 3 -122 67 -271 142
l-271 135 -16 -23 c-33 -50 -161 -167 -210 -192 -176 -89 -429 -94 -610 -11
-73 33 -170 133 -210 215 -32 65 -74 208 -65 223 2 4 397 7 877 7 l873 0 7 98
c7 108 -6 294 -30 411 -91 443 -392 760 -819 861 -159 38 -362 49 -535 29z
m356 -569 c101 -26 177 -72 236 -145 47 -58 89 -154 103 -232 l7 -43 -526 0
-526 0 0 23 c1 36 46 154 80 207 62 97 169 168 294 195 95 21 239 18 332 -5z"/>
<path d="M22285 4610 c-224 -34 -410 -136 -599 -329 -49 -50 -90 -91 -92 -91
-2 0 -4 79 -4 175 l0 175 -330 0 -330 0 0 -1165 0 -1165 340 0 340 0 0 644 c0
680 4 753 45 863 80 212 290 353 525 353 191 0 328 -78 380 -217 50 -135 53
-169 57 -930 l4 -713 340 0 339 0 0 783 c0 430 -5 838 -10 906 -18 236 -72
364 -210 501 -120 121 -223 172 -414 205 -92 16 -292 18 -381 5z"/>
<path d="M18985 4579 c-177 -17 -308 -55 -470 -134 -287 -141 -517 -399 -614
-692 -52 -153 -65 -239 -64 -428 0 -147 3 -185 26 -281 42 -183 99 -308 205
-453 187 -254 468 -427 794 -488 131 -24 430 -24 553 1 384 76 690 292 873
616 180 320 198 789 43 1140 -218 495 -748 778 -1346 719z m310 -634 c171 -36
310 -144 383 -297 52 -107 66 -176 65 -318 0 -299 -146 -511 -406 -592 -60
-19 -94 -23 -207 -23 -115 0 -146 4 -209 25 -170 55 -289 171 -353 343 -27 72
-31 98 -36 218 -3 106 -1 154 12 213 48 216 197 370 408 426 90 23 244 26 343
5z"/>
<path d="M7910 4570 c-255 -21 -486 -113 -690 -275 -205 -163 -354 -406 -413
-675 -26 -123 -28 -345 -4 -468 100 -500 443 -850 942 -962 142 -32 386 -33
532 -2 255 55 474 174 653 356 l65 66 -195 195 c-107 107 -199 195 -205 195
-5 0 -37 -27 -70 -59 -172 -169 -399 -252 -606 -221 -349 51 -575 330 -556
689 6 123 30 204 87 301 110 186 301 297 528 308 203 9 383 -65 553 -229 l63
-60 193 193 c106 106 193 198 193 204 0 21 -175 179 -261 237 -238 158 -520
230 -809 207z"/>
<path d="M13350 4565 c-101 -16 -236 -54 -315 -90 -32 -14 -59 -25 -61 -25 -2
0 -4 20 -4 45 l0 45 -340 0 -340 0 0 -1630 0 -1630 340 0 340 0 0 466 c0 440
1 466 18 459 92 -40 206 -78 292 -96 140 -31 465 -34 603 -6 342 69 620 250
808 527 136 201 201 427 201 700 0 377 -120 665 -377 908 -249 236 -539 343
-923 341 -87 -1 -195 -7 -242 -14z m440 -630 c187 -58 313 -180 382 -372 14
-42 22 -93 25 -184 7 -164 -6 -240 -62 -355 -75 -155 -213 -264 -383 -299 -86
-19 -238 -19 -324 0 -165 34 -303 144 -376 296 -51 106 -66 176 -66 314 0 138
15 208 66 313 73 153 209 259 383 297 89 19 276 13 355 -10z"/>
<path d="M16810 3375 l0 -1165 340 0 340 0 0 1165 0 1165 -340 0 -340 0 0
-1165z"/>
</g>
</svg>
